<?xml version="1.0" encoding="utf-8"?>
<!-- Generator: Adobe Illustrator 18.0.0, SVG Export Plug-In . SVG Version: 6.00 Build 0)  -->
<!DOCTYPE svg PUBLIC "-//W3C//DTD SVG 1.1 Basic//EN" "http://www.w3.org/Graphics/SVG/1.1/DTD/svg11-basic.dtd">
<svg version="1.1" baseProfile="basic" id="Layer_1"
	 xmlns="http://www.w3.org/2000/svg" xmlns:xlink="http://www.w3.org/1999/xlink" x="0px" y="0px" viewBox="0 0 20 20"
	 xml:space="preserve">
<g>
	<path fill="#FFFFFF" d="M2.1,0.2l0,15c0,1.6,1,3.1,3,3H8c0.9,0,1.7,0.5,2.1,1.5c0.4-0.8,1.2-1.5,2-1.6h2.5c2,0,3.3-1.3,3.3-3.1V0.2
		H2.1z M17.4,5c-0.5,0-1,0.4-1,0.9c0,0.5,0.5,0.9,1,0.9V7c-0.8,0-1.1-0.7-1.1-1c0-0.4,0.3-1.1,1.1-1.1V5z M17.4,3.4
		c-0.1,0-0.2,0-0.3,0c-0.1,0.2-0.1,0.4-0.2,0.6c-0.4,0.1-0.7,0.3-1,0.6c-0.2,0-0.4-0.1-0.6-0.1c-0.1,0.2-0.3,0.6-0.3,0.9
		c0.2,0.1,0.4,0.2,0.5,0.3c0,0.4,0.1,0.8,0.3,1.2c-0.1,0.2-0.2,0.4-0.3,0.5c0.2,0.2,0.5,0.5,0.8,0.6c0.2-0.1,0.3-0.2,0.5-0.4
		c0.2,0.1,0.5,0.1,0.7,0.1v1.6c-1,0-1.8-0.4-2.4-0.9c0.2-0.2,0.5-0.4,0.7-0.6c-0.1-0.1-0.3-0.3-0.3-0.4c0-0.2,0.1-0.3,0.2-0.5
		c0.1-0.1,0-0.2,0-0.2c-0.4,0.3-0.8,0.6-1.2,1c-0.3-0.4-0.5-0.9-0.5-1.4l1,0c0.5,0,0.6-0.7,0.1-0.9l-1-0.3C14,4.6,14.2,4,14.7,3.6
		c0.3,0.3,0.6,0.6,0.8,0.9c0.1,0,0.2,0,0.3,0.1c0.2-0.2,0.4-0.3,0.6-0.5c-0.3-0.4-0.6-0.8-1-1.2c0.5-0.3,1.1-0.5,1.9-0.5V3.4z
		 M14.6,17.5h-2.4c-0.8,0.1-1.7,0.4-2.1,1.1c-0.4-0.7-1.4-1.1-2.2-1H5.2c-1.5,0-2.4-0.8-2.5-2.3h14.6C17.1,16.8,16,17.5,14.6,17.5z
		 M17.4,14.9H2.7v-2.6h14.6V14.9z M10.6,5.1c0,0.3-0.2,0.5-0.5,0.5c-0.3,0-0.5-0.2-0.5-0.5c0-0.3,0.2-0.5,0.5-0.5
		C10.3,4.7,10.6,4.9,10.6,5.1z M17.4,11.3h-4.5v-1.1c-1-0.7-1.7-2.3-1.7-3.3v-3h-0.4V3c0-0.5-1.2-0.5-1.3,0v0.9H9.1v3
		c-0.1,1-0.9,2.4-1.7,3.3l0,1.1H7.2v-1.1H7L6.6,8.9H6.4V8.1H5.2v0.9H5.1l-0.4,1.3H4.4v1.1H2.8V0.9h14.6v0.4c-0.4,0-0.7,0.1-1.1,0.1
		c0-0.1-0.1-0.3-0.1-0.4c-0.2,0-0.4,0.1-0.5,0.2c0,0.1,0.1,0.3,0.1,0.4C15.4,1.8,15,2,14.6,2.2c-0.1-0.1-0.2-0.2-0.2-0.3
		c-0.2,0.1-0.3,0.2-0.4,0.4c0.1,0.1,0.2,0.2,0.2,0.3c-0.3,0.3-0.6,0.7-0.8,1c-0.1-0.1-0.2-0.1-0.3-0.2c-0.1,0.1-0.1,0.3-0.2,0.5
		C12.9,3.9,13,4,13.2,4c-0.1,0.3-0.3,0.6-0.3,1l-1.6-0.4v1.7l1.6,0.1c0,0.2,0.1,0.5,0.1,0.7c-0.1,0-0.2,0.1-0.4,0.1
		c0,0.2,0.1,0.4,0.2,0.5c0.1-0.1,0.2-0.1,0.4-0.2c0.1,0.4,0.3,0.8,0.6,1.2c-0.1,0.1-0.2,0.1-0.3,0.2c0.1,0.1,0.2,0.3,0.3,0.4
		c0.1-0.1,0.2-0.2,0.3-0.3c0.3,0.3,0.6,0.6,1,0.8c-0.1,0.1-0.1,0.2-0.2,0.3c0.1,0.1,0.3,0.2,0.5,0.3c0.1-0.1,0.1-0.2,0.2-0.4
		c0.4,0.2,0.8,0.3,1.2,0.4c0,0.1,0,0.3,0,0.4c0.2,0,0.4,0,0.6,0c0-0.1,0-0.2,0-0.4c0.1,0,0.1,0,0.2,0V11.3z"/>
	<path fill="#FFFFFF" d="M5.1,13.2C5,13.4,4.9,13.6,5,13.8h0h0v0c0,0,0,0,0,0c0,0,0.1,0,0.1,0c0,0,0.1,0,0.1,0
		c0.1,0.1,0.3,0.2,0.5,0.2c0,0,0.1,0.1,0.1,0.1c0,0.1,0.2,0.1,0.3,0.1c0.1,0.1,0.5,0,0.6,0.1c0.1,0,0.2,0,0.3,0.1c0,0,0,0,0.1,0
		c0.1,0,0.1,0,0.2,0c0,0,0,0,0.1,0l0,0v0c0,0,0,0,0-0.1c0,0,0,0-0.1,0c0,0-0.1,0-0.1,0c-0.1,0-0.2,0-0.2-0.1c0,0,0,0-0.1,0l0,0
		c0,0,0,0-0.1,0c-0.1-0.1-0.5-0.2-0.7-0.2c0,0,0,0,0,0c0,0,0,0,0,0c-0.1,0-0.2-0.1-0.3-0.2c0,0,0-0.1,0-0.1c0,0,0,0,0,0v0
		c0,0,0-0.1,0-0.1h0c0,0,0-0.1,0-0.2c0,0,0-0.1,0.1-0.1l0,0h0c0,0,0.1-0.1,0.1-0.2c0.1,0,0.2,0,0.3,0C6,13,6.2,13,6.3,12.9
		c0.1,0,0.2-0.2,0.2-0.2c0-0.1,0.3-0.1,0.3-0.2c0,0,0.1,0,0.1,0c0,0,0,0,0.1,0c0,0,0-0.1,0-0.1c0,0,0,0-0.1,0c-0.1,0-0.2,0-0.2,0
		c0,0,0,0,0,0c0,0-0.1,0.1-0.1,0.1c0,0-0.1,0-0.1,0c0,0,0,0-0.1,0c0,0-0.2,0-0.2,0.1v0c-0.1,0-0.2,0.1-0.3,0.1c0,0,0,0,0,0
		c0,0,0,0,0,0c0,0,0,0,0,0h0v0c-0.1,0.1-0.4,0-0.5,0.1v0c0,0-0.2,0.1-0.2,0.1C5.2,13.1,5.1,13.2,5.1,13.2z"/>
	<path fill="#FFFFFF" d="M3.4,14C3.4,14,3.4,14.1,3.4,14c0.1,0.1,0.2,0.1,0.2,0.1c0,0,0,0,0,0c0.2,0,0.3,0.1,0.5,0.2v0v0
		c0.1,0.1,0.3,0.1,0.5,0.2v0c0,0,0.1,0,0.1,0c0,0,0.1,0,0.1,0c0,0,0,0,0,0c0,0,0.1,0,0.2,0c0.1-0.2-0.4-0.2-0.5-0.3
		c0,0-0.2-0.1-0.2-0.1c0,0-0.1-0.1-0.2-0.1c-0.1,0-0.2-0.1-0.3-0.1c0,0,0-0.1-0.1-0.1c0,0,0,0,0,0c0,0,0,0,0,0
		c0-0.1-0.1-0.4,0.1-0.4c0-0.1,0.2-0.2,0.3-0.2c0,0,0,0,0-0.1v0v0c0,0,0,0,0,0l0,0c0.1,0,0.1,0,0.2,0c0,0,0.3-0.2,0.3-0.2
		c0.1,0,0.1-0.1,0.2-0.1c0,0,0.1,0,0.1,0v0h0h0v0c0,0,0,0,0,0c0,0,0.1,0,0.1,0l0,0l0,0l0-0.1c0,0,0,0,0-0.1c0,0-0.1,0-0.1,0
		c-0.1,0-0.2,0-0.3,0.1c0,0-0.1,0-0.1,0c0,0-0.2,0-0.2,0.1c0,0-0.1,0-0.2,0c0,0,0,0-0.1,0c0,0-0.5,0.1-0.5,0.2
		c-0.1,0-0.2,0.1-0.3,0.1c0,0-0.1,0-0.1,0v0.1l0,0v0.1l0,0c0,0,0,0.1,0,0.1c-0.1,0-0.2,0.3-0.2,0.4C3.2,13.8,3.3,13.9,3.4,14
		C3.3,14,3.4,14,3.4,14z"/>
	<path fill="#FFFFFF" d="M7,13.1C7,13.1,7,13.2,7,13.1c-0.1,0.1-0.1,0.2-0.2,0.2c0,0,0,0-0.1,0v0v0c0,0,0,0-0.1,0c0,0.1,0,0.2,0,0.2
		c0,0,0.2,0.1,0.3,0.1c0,0,0,0,0,0c0,0.1,0.2,0.2,0.2,0.2c0.4,0,0.7,0.3,1,0.3c0,0,0,0,0,0c0,0,0.1,0.1,0.1,0.1
		c0.1,0,0.3,0.1,0.4,0.1c0,0,0.1,0,0.1,0v0H9l0,0v0c0,0,0,0,0,0h0c0,0-0.1,0-0.1-0.1c0,0,0,0,0,0c0,0,0,0,0,0c-0.1,0-0.2,0-0.2,0
		c0,0-0.3-0.1-0.3-0.2c-0.1,0-0.2-0.2-0.3-0.2l-0.5-0.2c0,0-0.1-0.1-0.2-0.1c0-0.1,0-0.2,0.1-0.3c0-0.1,0.2-0.2,0.2-0.2l0.1,0
		c0,0,0-0.1,0-0.1c0,0,0.2-0.1,0.2-0.1c0,0,0,0,0,0c0.1,0,0.2,0,0.3,0c0,0,0.1,0,0.2,0v-0.1l0,0h0v0l0,0l-0.7,0
		c-0.1,0.1-0.2,0.1-0.2,0.2c-0.1,0-0.1,0.1-0.2,0.1C7.2,13,7.1,13.1,7,13.1C7.1,13.1,7.1,13.1,7,13.1L7,13.1z"/>
	<path fill="#FFFFFF" d="M8.7,13.8L8.7,13.8l0.7,0.4v0v0c0.2,0,0.4,0.1,0.6,0.2v0c0,0,0.1,0,0.2,0c0,0,0,0,0,0c0,0,0,0,0.1,0v0
		c0.1,0,0.4,0,0.4,0c0,0,0,0,0,0l0,0c0,0,0.1-0.1,0.1-0.1c0,0,0,0,0,0c0.1,0,0.1-0.1,0.1-0.1c0,0,0.2-0.1,0.3-0.2
		c0-0.1,0.1-0.1,0.2-0.1c0,0,0.1-0.2,0.1-0.2c0,0,0,0,0,0l0-0.3c-0.1,0-0.2-0.3-0.3-0.3c-0.1-0.1-0.4-0.1-0.4-0.2
		c-0.2,0-0.3-0.1-0.6-0.1c0,0,0,0,0,0c0,0,0,0,0,0c-0.1,0-0.1,0-0.2,0c0,0.1-0.2,0.1-0.2,0.1c0,0,0,0-0.1,0l0,0
		c-0.1,0-0.2,0.1-0.3,0.1c0,0.1-0.2,0.1-0.2,0.1c0,0.1-0.3,0.2-0.4,0.2c0,0,0,0,0,0.1c0,0,0,0,0,0c0,0,0,0,0,0c0,0,0,0,0,0
		C8.7,13.3,8.5,13.7,8.7,13.8z M9.3,13.4L9.3,13.4L9.3,13.4C9.3,13.3,9.4,13.3,9.3,13.4L9.3,13.4l0.1-0.1c0,0,0,0,0,0h0h0L9.8,13
		c0,0,0,0,0,0c0,0,0.1-0.1,0.1-0.1v0v0l0,0c0,0,0.1-0.1,0.1-0.1h0h0l0,0c0,0,0,0,0.1,0c0.1,0,0.2,0,0.3,0.1c0,0,0.1,0,0.1,0
		c0.1,0.2,0.4,0.1,0.4,0.3l0,0v0c0,0,0,0.1,0,0.2l0,0v0v0c0,0,0,0.1-0.1,0.1c0,0-0.1,0.1-0.1,0.1c0,0,0,0.1-0.1,0.1v0
		c0,0-0.1,0.1-0.1,0.1c0,0-0.2,0.1-0.2,0.2c0,0,0,0,0,0c0,0,0,0,0,0.1h0h0c0,0,0,0,0,0c0,0-0.1,0-0.2,0c0,0,0,0,0,0l0,0v0
		c0,0,0,0-0.1,0c0,0-0.1,0-0.1,0c0,0-0.1,0-0.1,0c0,0-0.1,0-0.1-0.1c0,0-0.2-0.1-0.2-0.1c0-0.1-0.3-0.1-0.4-0.2c0,0,0-0.1,0-0.1
		c0,0,0,0,0,0C9.3,13.6,9.2,13.5,9.3,13.4C9.3,13.4,9.3,13.4,9.3,13.4z"/>
	<path fill="#FFFFFF" d="M13.6,14.3C13.6,14.3,13.6,14.3,13.6,14.3C13.6,14.3,13.6,14.3,13.6,14.3z"/>
	<path fill="#FFFFFF" d="M12.3,13c0,0.1,0.4,0.1,0.5,0.2c0.3,0,0.5,0.3,0.3,0.5c0,0-0.1,0.1-0.1,0.1L12.4,14
		c-0.2,0.1-0.3,0.2-0.7,0.3h0c0,0,0,0,0,0v0l0,0h0.1v0c0.1,0.1,0.6-0.1,0.6-0.1c0.3,0,0.4-0.3,0.8-0.3c0,0,0.1,0,0.2-0.1
		c0.1,0,0.1,0,0.1-0.1c0,0,0.1-0.2,0.2-0.2c0-0.1,0-0.2,0-0.2c0,0,0,0-0.1,0v0v0c0,0-0.1,0-0.1,0c0,0-0.1-0.1-0.1-0.1c0,0,0,0,0,0v0
		c0,0,0,0,0,0c0,0-0.1,0-0.1-0.1c-0.1,0-0.3-0.1-0.4-0.1c0-0.1-0.3-0.1-0.4-0.1l-0.6-0.3l0,0v0h0l0,0v0.1
		C11.9,12.7,12.2,13.1,12.3,13z"/>
	<path fill="#FFFFFF" d="M13.2,12.5C13.2,12.6,13.3,12.6,13.2,12.5c0.2,0.1,0.3,0.1,0.3,0.2c0.1,0,0.3,0,0.4,0
		c0.1,0.1,0.3,0.1,0.4,0.2c0.1,0,0.3,0.2,0.4,0.2c0,0,0.1,0.1,0.2,0.1h0l0,0c0,0,0,0.1,0.1,0.1c0,0,0.1,0.2,0.1,0.2h0
		c0,0,0,0.1,0,0.1v0c0,0,0,0,0,0c0,0-0.1,0-0.1,0.1c-0.1,0-0.4,0.1-0.5,0.1c0,0,0,0,0,0c0,0,0,0,0,0c-0.2,0-0.4,0.2-0.5,0.3
		c0,0,0,0-0.1,0l0,0c0,0,0,0,0,0c0,0-0.2,0-0.3,0.1c-0.1,0-0.2,0.1,0,0.1c0,0,0,0,0,0c0-0.1,0.3,0,0.3,0c0.1-0.1,0.3-0.1,0.4-0.2
		c0.1,0,0.2,0,0.2-0.1c0,0,0.2-0.1,0.2-0.1c0.2,0,0.3,0,0.4-0.1c0,0,0.1-0.1,0.1-0.1c0,0,0,0,0.1,0c0.3-0.3,0.2-0.5-0.1-0.7
		c0,0-0.1-0.1-0.2-0.1c0,0-0.2-0.1-0.2-0.1v0c-0.1-0.1-0.1-0.1-0.3-0.2v0h0c0,0,0,0,0,0c0,0,0,0,0,0c0,0,0,0,0,0
		c-0.1,0-0.4,0.1-0.5,0v0c0,0-0.3,0-0.3,0c0,0,0,0-0.1,0c0,0-0.1,0-0.1,0c0,0-0.1-0.1-0.1-0.1c0,0,0,0,0,0c0,0,0,0,0,0
		c-0.1,0-0.2,0-0.3,0c0,0,0,0.1,0,0.1C13.1,12.5,13.2,12.5,13.2,12.5z"/>
	<path fill="#FFFFFF" d="M14.9,12.6c0,0,0.1,0,0.1,0v0h0h0v0c0,0,0,0,0,0c0,0,0.1,0,0.1,0c0.1,0,0.1,0,0.1,0c0.1-0.1,0.4,0,0.4,0.1
		c0.1,0,0.1,0,0.2,0l0,0c0,0,0,0,0,0v0v0c0,0,0,0,0,0.1c0.1,0,0.2,0.2,0.3,0.2c0.3,0,0.3,0.6,0.3,0.6c0,0,0,0,0,0c0,0,0,0,0,0
		c0,0-0.1,0-0.1,0.1c-0.1,0-0.5,0-0.5,0c0,0-0.1,0.1-0.2,0.1c0,0-0.1,0.1-0.2,0.1c0,0.1-0.3,0.1-0.5,0.2c-0.2,0.1-0.3,0.1-0.3,0.2
		c0,0,0.2,0,0.3-0.1c0.1,0,0.3-0.1,0.3-0.1c0,0,0,0,0,0c0,0,0.1,0,0.1,0c0,0,0.1,0,0.1,0v0c0.1-0.1,0.5-0.1,0.5-0.1
		c0.2,0,0.4-0.1,0.4-0.1c0,0,0.1,0,0.1,0c0,0,0.1-0.1,0.1-0.1c0,0,0,0,0,0c0-0.1,0.1-0.2,0.1-0.3c0,0,0-0.1,0-0.2v0
		c0-0.1,0-0.2-0.1-0.2c0,0-0.1-0.1-0.1-0.1l0,0V13l0,0c0-0.2-0.1-0.1-0.1-0.1c-0.1,0-0.2-0.1-0.3-0.1c0-0.1-0.3-0.2-0.4-0.2
		c0,0,0,0-0.1,0c-0.1,0-0.1,0-0.2,0c0,0-0.3,0-0.3,0c0,0-0.1,0.1-0.1,0.1c-0.1-0.1-0.1-0.1-0.2-0.1c0,0-0.1,0-0.1,0
		C15,12.5,14.9,12.5,14.9,12.6L14.9,12.6L14.9,12.6L14.9,12.6z"/>
	<circle fill="#FFFFFF" cx="10.1" cy="5.1" r="0.4"/>
	<path fill="#FFFFFF" d="M7,3.1L5.9,2.9L5.4,4.1L4.7,4L4.6,4.7L5,4.8L4.9,5.4C5.1,6,5.2,6.6,5.2,7.2l1.1,0.1
		c0.3-0.6,0.6-1.1,0.9-1.6l0-0.3l1.9,0.5V4.2L7.1,4.2L7,3.1z"/>
</g>
</svg>
