<?xml version="1.0" encoding="utf-8"?>
<!-- Generator: Adobe Illustrator 18.0.0, SVG Export Plug-In . SVG Version: 6.00 Build 0)  -->
<!DOCTYPE svg PUBLIC "-//W3C//DTD SVG 1.1 Basic//EN" "http://www.w3.org/Graphics/SVG/1.1/DTD/svg11-basic.dtd">
<svg version="1.1" baseProfile="basic" id="Layer_1"
	 xmlns="http://www.w3.org/2000/svg" xmlns:xlink="http://www.w3.org/1999/xlink" x="0px" y="0px" viewBox="0 0 40 40"
	 xml:space="preserve">
<g>
	<path fill="#FFFFFF" d="M4.1,0.4l0,30c0,3.3,2.1,6.1,6.1,6.1H16c1.8,0,3.3,1,4.2,3c0.9-1.7,2.4-3,4.1-3.1h5c4,0,6.5-2.7,6.5-6.1
		V0.4H4.1z M34.8,10c-1.1,0-1.9,0.8-1.9,1.9c0,1.1,0.9,1.9,1.9,1.9V14c-1.7-0.1-2.2-1.4-2.2-2.1c0-0.7,0.6-2.2,2.2-2.2V10z
		 M34.8,6.9c-0.2,0-0.4,0-0.7,0c-0.1,0.4-0.2,0.9-0.3,1.3c-0.8,0.2-1.5,0.6-2,1.3c-0.5-0.1-0.8-0.2-1.3-0.2
		c-0.3,0.5-0.6,1.1-0.7,1.7c0.4,0.2,0.7,0.5,1.1,0.7c0,0.9,0.2,1.6,0.6,2.3c-0.2,0.4-0.4,0.7-0.6,1.1c0.4,0.5,0.9,0.9,1.5,1.2
		c0.3-0.2,0.6-0.5,0.9-0.7c0.5,0.2,0.9,0.3,1.5,0.2v3.2c-2.1,0-3.6-0.8-4.8-1.8c0.5-0.4,1-0.8,1.4-1.1c-0.3-0.2-0.6-0.6-0.6-0.8
		c-0.1-0.3,0.1-0.7,0.4-1.1c0.1-0.1,0-0.3-0.1-0.5c-0.8,0.6-1.7,1.3-2.5,1.9c-0.6-0.8-0.9-1.8-1-2.8l2,0.1c1.1,0,1.2-1.5,0.2-1.8
		l-2-0.5c0.2-1.2,0.8-2.4,1.6-3.3C29.9,7.8,30.5,8.4,31,9c0.2,0,0.4,0.1,0.7,0.1c0.3-0.3,0.8-0.7,1.2-1c-0.7-0.8-1.3-1.6-2-2.4
		c1-0.6,2.3-1,3.8-1.1V6.9z M29.2,35.1h-4.8c-1.6,0.1-3.4,0.8-4.1,2.2c-0.7-1.4-2.8-2.1-4.5-2.1h-5.4c-3,0-4.8-1.6-4.9-4.6h29.3
		C34.2,33.7,32.1,35.1,29.2,35.1z M34.8,29.7H5.4v-5.2h29.3V29.7z M21.1,10.3c0,0.5-0.4,1-1,1c-0.5,0-1-0.4-1-1s0.4-1,1-1
		C20.7,9.3,21.1,9.7,21.1,10.3z M34.8,22.6h-9.1v-2.2c-1.9-1.4-3.4-4.6-3.4-6.6v-6h-0.8V6c0-1.1-2.5-1-2.5,0v1.8h-0.7v6
		c-0.1,1.9-1.8,4.8-3.4,6.7l0,2.2h-0.4v-2.1h-0.3l-0.9-2.6h-0.3v-1.7h-2.5v1.7h-0.3l-0.8,2.6H8.9v2.1H5.5V1.8h29.3v0.8
		c-0.7,0-1.5,0.1-2.2,0.3c-0.1-0.3-0.1-0.5-0.2-0.8c-0.3,0.1-0.7,0.2-1,0.3c0.1,0.3,0.2,0.5,0.2,0.8C30.8,3.6,30,4,29.3,4.4
		C29.1,4.2,29,4,28.8,3.8c-0.3,0.2-0.6,0.4-0.9,0.7c0.2,0.2,0.3,0.4,0.5,0.6c-0.6,0.7-1.2,1.3-1.6,2c-0.2-0.1-0.5-0.3-0.7-0.4
		c-0.2,0.3-0.3,0.6-0.5,0.9c0.3,0.1,0.5,0.2,0.7,0.3c-0.3,0.6-0.5,1.3-0.6,1.9l-3.3-0.9v3.4l3.2,0.1c0,0.5,0.1,1,0.2,1.5
		c-0.2,0.1-0.5,0.1-0.7,0.2c0.1,0.4,0.2,0.7,0.3,1.1c0.2-0.1,0.5-0.2,0.7-0.3c0.3,0.9,0.7,1.6,1.2,2.3c-0.2,0.1-0.4,0.3-0.6,0.4
		c0.2,0.3,0.4,0.6,0.7,0.9c0.2-0.2,0.4-0.4,0.6-0.6c0.6,0.6,1.2,1.1,2,1.6c-0.1,0.2-0.2,0.4-0.4,0.7c0.2,0.2,0.6,0.4,1,0.5
		c0.1-0.2,0.2-0.5,0.3-0.7c0.9,0.4,1.7,0.7,2.5,0.7c0,0.3-0.1,0.5-0.1,0.8c0.4,0,0.7,0.1,1.1,0c0-0.2,0-0.5,0-0.7c0.1,0,0.3,0,0.4,0
		V22.6z"/>
	<path fill="#FFFFFF" d="M10.1,26.5c-0.2,0.3-0.3,0.6-0.2,1.1h0h0v0.1c0,0,0.1,0,0.1,0.1c0.1,0,0.1,0,0.2,0c0.1,0,0.1,0.1,0.2,0.1
		c0.3,0.1,0.7,0.4,1,0.4c0,0,0.2,0.2,0.2,0.2c0.1,0.1,0.4,0.2,0.5,0.2c0.2,0.2,0.9,0.1,1.2,0.2c0.1,0,0.5,0.1,0.5,0.2
		c0,0,0.1,0,0.1,0c0.1,0,0.3,0,0.4,0c0,0,0.1,0,0.1,0l0,0V29c0,0-0.1-0.1-0.1-0.1c-0.1,0-0.1-0.1-0.2-0.1c0,0-0.1,0-0.3-0.1
		c-0.2,0-0.4-0.1-0.5-0.1c0,0-0.1,0-0.1,0l0,0c0,0-0.1,0-0.1,0c-0.2-0.2-1-0.3-1.3-0.3c0,0,0,0,0,0c0,0,0-0.1,0-0.1
		c-0.2,0-0.4-0.3-0.6-0.3c0-0.1,0-0.1,0-0.2c0,0,0-0.1-0.1-0.1v-0.1c0,0-0.1-0.1-0.1-0.1h0c0-0.1,0-0.3,0-0.4c0,0,0-0.1,0.1-0.1
		l0-0.1h0c0.1-0.1,0.1-0.3,0.2-0.4c0.1,0,0.4-0.1,0.5-0.1c0.1-0.2,0.6-0.1,0.8-0.4c0.1,0,0.4-0.3,0.5-0.3c0-0.2,0.6-0.1,0.6-0.4
		c0.1,0,0.2-0.1,0.2-0.1c0,0,0.1,0,0.1,0c0,0,0-0.1,0-0.2c0,0-0.1,0-0.1,0c-0.1,0-0.3-0.1-0.4-0.1c0,0-0.1,0-0.1,0.1
		c-0.1,0-0.2,0.1-0.3,0.1c0,0-0.1,0.1-0.2,0.1c0,0-0.1,0.1-0.1,0.1c0,0.1-0.3,0-0.4,0.1v0c-0.1,0.1-0.4,0.1-0.6,0.1c0,0,0,0,0,0
		c0,0,0,0-0.1,0c0,0,0,0,0,0h0v0c-0.3,0.2-0.7,0.1-1,0.3v0c0,0-0.4,0.2-0.4,0.2C10.3,26.2,10.2,26.3,10.1,26.5z"/>
	<path fill="#FFFFFF" d="M6.7,28.1c0,0,0.1,0.1,0.2,0.1c0,0.1,0.2,0.1,0.3,0.1c0,0,0,0,0,0.1c0.4,0,0.6,0.2,0.9,0.3v0v0
		C8.3,29,8.8,29,9,29.1v0c0.1,0,0.2,0,0.3,0.1c0,0,0.1,0,0.2,0c0,0,0,0,0,0c0.1,0,0.3-0.1,0.4-0.1c0.2-0.3-0.8-0.3-0.9-0.5
		c0,0-0.3-0.1-0.3-0.2c-0.1,0-0.3-0.1-0.3-0.2c-0.1-0.1-0.4-0.2-0.5-0.2c0,0-0.1-0.1-0.1-0.1c0,0,0,0,0-0.1c0,0,0,0-0.1,0
		c0-0.1-0.2-0.9,0.2-0.9c0.1-0.2,0.4-0.4,0.5-0.5c0-0.1,0-0.1,0.1-0.1v0v0c0,0,0.1,0,0.1,0l0,0c0.1,0,0.3,0,0.4,0
		c0,0,0.6-0.4,0.7-0.5c0.1,0,0.3-0.2,0.4-0.2c0.1-0.1,0.2,0,0.3-0.1v0h0h0v0c0,0,0,0,0,0c0,0,0.2,0,0.2,0l0,0l0,0l0-0.1
		c0,0,0-0.1-0.1-0.1c-0.1,0-0.1,0-0.2,0c-0.2,0-0.4,0-0.5,0.2c0,0-0.2,0.1-0.2,0.1c-0.1,0-0.3,0.1-0.3,0.1c-0.1,0-0.2,0-0.4,0
		c0,0-0.1,0.1-0.1,0.1c-0.1,0-1,0.2-1,0.4c-0.2,0-0.3,0.2-0.5,0.2c0,0-0.2,0-0.3,0v0.2l0,0v0.1l0,0c0,0,0,0.1,0,0.2
		c-0.2,0.1-0.4,0.6-0.4,0.8C6.5,27.6,6.6,27.9,6.7,28.1C6.7,28.1,6.7,28.1,6.7,28.1z"/>
	<path fill="#FFFFFF" d="M14.1,26.3c0,0-0.1,0.1-0.1,0.1c-0.1,0.1-0.2,0.2-0.2,0.2c0,0-0.1,0.1-0.1,0.1v0v0c0,0-0.1,0.1-0.1,0.1
		c0,0.1,0,0.3,0,0.5c0.1,0.1,0.4,0.3,0.5,0.3c0,0,0,0,0,0.1c0.1,0.2,0.5,0.3,0.5,0.4c0.7,0,1.4,0.6,2.1,0.6c0,0,0,0,0,0
		c0,0.1,0.1,0.2,0.1,0.3c0.2,0.1,0.6,0.2,0.9,0.2c0.1,0,0.2,0,0.2,0v0h0.1l0,0V29c0,0,0,0,0,0h-0.1c0,0-0.2-0.1-0.2-0.1
		c0,0,0-0.1,0-0.1c0,0,0,0,0,0c-0.1,0-0.3,0-0.5,0c-0.1-0.1-0.5-0.1-0.5-0.4c-0.1,0-0.5-0.3-0.6-0.4l-1.1-0.4c0,0-0.3-0.2-0.3-0.3
		c0-0.2,0-0.4,0.1-0.6c0-0.1,0.4-0.4,0.4-0.5l0.2,0.1c0,0-0.1-0.2-0.1-0.2c0-0.1,0.4-0.2,0.4-0.3c0,0,0,0,0,0c0.2,0,0.4-0.1,0.6-0.1
		c0.1,0,0.2-0.1,0.3-0.1v-0.1l0,0h-0.1v0l0-0.1l-1.3,0c-0.1,0.1-0.3,0.3-0.4,0.4c-0.1,0-0.2,0.3-0.4,0.3c0,0.1-0.2,0.1-0.3,0.1
		C14.1,26.2,14.1,26.2,14.1,26.3L14.1,26.3z"/>
	<path fill="#FFFFFF" d="M17.4,27.6l0.2,0.1l1.2,0.6v0v0c0.3,0,0.9,0.2,1.2,0.4v0c0.1,0,0.2,0,0.4,0c0,0,0.1,0,0.1,0
		c0,0,0.1,0,0.1,0v0c0.1,0.1,0.7,0,0.8-0.1c0,0,0,0,0-0.1l0,0c0,0,0.1-0.2,0.2-0.2c0,0,0,0,0.1,0c0.1,0,0.1-0.2,0.3-0.2
		c0-0.1,0.4-0.3,0.6-0.3c0-0.1,0.3-0.2,0.3-0.2c0.1-0.1,0.2-0.4,0.2-0.5c0,0,0,0,0.1,0l0-0.7c-0.2-0.1-0.4-0.6-0.7-0.6
		c-0.1-0.3-0.8-0.2-0.9-0.5c-0.3-0.1-0.7-0.3-1.1-0.2c0,0,0,0,0-0.1c0,0,0,0-0.1,0c-0.1-0.1-0.3-0.1-0.5,0c-0.1,0.1-0.3,0.2-0.4,0.3
		c0,0-0.1,0-0.1,0l0,0c-0.2,0-0.3,0.3-0.5,0.3c0,0.1-0.3,0.1-0.4,0.1c-0.1,0.1-0.6,0.4-0.8,0.5c0,0,0,0.1-0.1,0.1c0,0,0,0,0,0.1
		c0,0,0,0-0.1,0c0,0,0,0.1,0,0.1C17.5,26.6,17,27.4,17.4,27.6z M18.6,26.7L18.6,26.7L18.6,26.7c0,0,0.1-0.2,0.2-0.2h0h0
		c0,0,0.1-0.1,0.1-0.1h0h0l0.6-0.4c0,0,0,0,0.1,0c0-0.1,0.2-0.2,0.2-0.2v0v0l0,0c0,0,0.2-0.2,0.3-0.2h0h0l0,0c0,0,0.1,0,0.1,0
		c0.2,0,0.5,0,0.6,0.1c0.1,0,0.2,0.1,0.3,0.1c0.2,0.4,0.8,0.2,0.9,0.7l0,0v0.1c0,0,0,0.3,0,0.3l0,0v0v0c0,0-0.1,0.2-0.2,0.2
		c0,0-0.1,0.2-0.1,0.2c0,0-0.1,0.2-0.1,0.2v0.1c0,0-0.1,0.2-0.2,0.2c0,0.1-0.3,0.2-0.3,0.3c0,0,0,0-0.1,0c0,0,0,0.1,0,0.1h0h0
		c0,0-0.1,0.1-0.1,0.1c-0.1,0-0.2,0.1-0.3,0.1c0,0,0,0,0,0l-0.1,0v0c0,0-0.1,0-0.2,0c-0.1,0-0.1,0-0.1-0.1c0,0-0.1-0.1-0.2-0.1
		c0,0-0.2-0.1-0.2-0.2c0,0-0.3-0.2-0.4-0.2c-0.1-0.2-0.6-0.2-0.8-0.3c0-0.1-0.1-0.1-0.1-0.2c0,0,0,0,0,0c0-0.1,0-0.2,0-0.4
		C18.5,26.9,18.5,26.7,18.6,26.7z"/>
	<path fill="#FFFFFF" d="M27.3,28.5C27.3,28.5,27.3,28.5,27.3,28.5C27.3,28.5,27.3,28.5,27.3,28.5z"/>
	<path fill="#FFFFFF" d="M24.6,26.1c0.1,0.2,0.8,0.2,1,0.3c0.5,0,0.9,0.7,0.6,1c0,0-0.3,0.2-0.3,0.3l-1,0.4
		c-0.4,0.2-0.7,0.4-1.4,0.6h-0.1c0,0,0,0,0,0v0.1l0,0h0.1v0c0.3,0.1,1.2-0.2,1.2-0.3c0.7,0,0.9-0.6,1.6-0.6c0-0.1,0.2-0.1,0.4-0.1
		c0.1,0,0.2-0.1,0.2-0.2c0.1,0,0.3-0.3,0.4-0.4c0-0.1,0-0.3,0-0.5c0,0-0.1-0.1-0.1-0.1v0v0c-0.1,0-0.1,0-0.1-0.1
		c-0.1,0-0.2-0.2-0.3-0.3c0,0,0,0,0,0v-0.1c0,0-0.1,0-0.1,0c-0.1,0-0.2-0.1-0.3-0.1c-0.2,0-0.6-0.1-0.8-0.1
		c-0.1-0.1-0.7-0.2-0.8-0.3l-1.3-0.5l0,0.1v0h-0.1l0,0v0.1C23.7,25.4,24.5,26.2,24.6,26.1z"/>
	<path fill="#FFFFFF" d="M26.5,25.1c0,0.1,0.1,0.1,0.2,0.2c0.2,0,0.4,0.1,0.4,0.2c0.1,0,0.7,0,0.8,0c0.2,0.2,0.7,0.1,0.8,0.4
		c0.2,0,0.6,0.4,0.8,0.4c0,0.1,0.3,0.2,0.3,0.2h0l0,0.1c0.1,0,0.1,0.1,0.1,0.1c0,0.1,0.2,0.3,0.2,0.4h0c0,0,0,0.1-0.1,0.1v0.1
		c0,0,0,0-0.1,0.1c0,0.1-0.2,0.1-0.2,0.1c-0.2,0.1-0.8,0.2-1.1,0.2c0,0,0,0.1,0,0.1c0,0,0,0,0,0c-0.3,0-0.7,0.4-0.9,0.7
		c0,0-0.1,0-0.1,0l0,0c0,0,0,0-0.1,0c0.1,0-0.3,0-0.6,0.1c-0.2,0.1-0.4,0.1,0,0.2c0,0,0,0,0.1,0c0.1-0.1,0.5,0,0.7,0
		c0.2-0.1,0.6-0.2,0.8-0.4c0.1,0,0.4-0.1,0.5-0.2c0.1,0,0.4-0.1,0.4-0.2c0.3,0,0.6-0.1,0.9-0.3c0.1-0.1,0.1-0.1,0.2-0.2
		c0,0,0.1,0,0.2,0c0.7-0.5,0.5-1-0.2-1.5c-0.1-0.1-0.2-0.2-0.3-0.2c-0.1,0-0.4-0.1-0.4-0.2v0c-0.2-0.2-0.3-0.2-0.5-0.4v0h0
		c0,0,0,0,0,0c0,0-0.1,0-0.1,0c0,0,0,0,0,0c-0.1,0-0.8,0.1-0.9,0v0c-0.1-0.1-0.5,0.1-0.6,0c0,0-0.1-0.1-0.1-0.1c0,0-0.2,0-0.2-0.1
		c-0.1,0-0.2-0.1-0.2-0.1c0,0,0,0,0,0c0,0,0,0,0,0c-0.2,0-0.4,0.1-0.5,0.1c0,0,0,0.1,0,0.2C26.2,25,26.3,25.1,26.5,25.1z"/>
	<path fill="#FFFFFF" d="M29.9,25.2c0,0,0.2,0,0.2,0v0h0h0v0c0,0,0,0,0,0c0.1,0,0.2,0,0.2,0.1c0.1,0,0.2-0.1,0.3-0.1
		c0.1-0.1,0.9,0,0.8,0.2c0.1,0,0.3,0,0.4,0l0,0c0,0,0.1,0,0.1,0v0v0c0,0,0.1,0,0.1,0.1c0.1,0.1,0.5,0.3,0.5,0.5
		c0.6,0,0.6,1.1,0.5,1.2c0,0,0,0-0.1,0c0,0,0,0,0,0.1c0,0-0.1,0.1-0.1,0.1c-0.2,0-1-0.1-1.1,0c0,0.1-0.2,0.2-0.3,0.2
		c0,0-0.3,0.2-0.3,0.2c-0.1,0.1-0.6,0.3-1.1,0.5c-0.4,0.1-0.6,0.3-0.6,0.4c0.1,0,0.3-0.1,0.6-0.2c0.3-0.1,0.6-0.2,0.6-0.2
		c0,0,0,0,0,0c0,0,0.2-0.1,0.3-0.1c0,0,0.2,0,0.3-0.1v0c0.3-0.1,1-0.1,1.1-0.1c0.3,0,0.8-0.1,0.8-0.2c0,0,0.1,0,0.1-0.1
		c0.1,0,0.1-0.1,0.2-0.1c0,0,0,0,0.1-0.1c0-0.1,0.2-0.4,0.2-0.5c0-0.1,0.1-0.2,0.1-0.3v-0.1c0-0.2-0.1-0.3-0.2-0.4
		c0,0-0.1-0.2-0.1-0.3l0,0v-0.1l0,0c0-0.4-0.3-0.1-0.3-0.2c-0.2,0-0.3-0.2-0.5-0.2c0-0.2-0.7-0.4-0.8-0.4c0,0-0.1-0.1-0.1-0.1
		c-0.1,0-0.3,0-0.4,0c0,0-0.6,0-0.6,0c0,0-0.2,0.2-0.2,0.1C30.5,25,30.4,25,30.2,25c-0.1,0-0.1,0-0.2,0c0,0-0.1,0.1-0.1,0.1V25.2
		L29.9,25.2L29.9,25.2z"/>
	<path fill="#FFFFFF" d="M19.5,10.2c0,0.4,0.3,0.7,0.7,0.7c0.4,0,0.7-0.3,0.7-0.7c0-0.4-0.3-0.7-0.7-0.7
		C19.8,9.5,19.5,9.9,19.5,10.2z"/>
	<path fill="#FFFFFF" d="M14,6.2l-2.3-0.3l-1,2.3L9.4,8L9.1,9.3L10,9.6l-0.2,1.2c0.4,1.2,0.6,2.4,0.6,3.6l2.2,0.3
		c0.5-1.2,1.1-2.2,1.8-3.2l0-0.6l3.7,1V8.5l-3.9-0.1L14,6.2z"/>
</g>
</svg>
